<svg width="46" height="46" viewBox="0 0 46 46" fill="none" xmlns="http://www.w3.org/2000/svg">
<path d="M14.181 25.3077C8.1076 28.4798 9.23266 35.0754 10.5544 37.9768C8.52345 34.7853 8.62016 32.0774 9.4422 27.9189C10.0998 24.5921 9.32937 17.6354 8.86194 14.5729C20.3124 23.2381 32.2013 18.1834 36.7145 14.5729C35.1671 25.1143 36.5211 27.1936 36.9079 30.8202C37.2174 33.7215 36.102 36.6389 35.5056 37.735C38.3682 30.5011 34.1194 26.436 31.6372 25.3077C32.8751 23.683 33.926 20.44 34.2967 19.0215C25.0125 23.4315 15.0192 20.859 11.183 19.0215C11.3764 20.5302 13.2623 23.8409 14.181 25.3077Z" fill="white"/>
<circle cx="16.1152" cy="32.9962" r="2.46611" fill="white"/>
<g filter="url(#filter0_d_25_684)">
<circle cx="29.1711" cy="32.9962" r="2.46611" fill="white"/>
</g>
<path d="M22.8849 3.06636C1.56731 3.17007 -8.09274 36.9514 20.8693 43.1846C-8.01905 44.1018 -4.5651 1.33533 22.7866 0.842835V0.840027C22.8194 0.840373 22.8522 0.84078 22.8849 0.841248C22.9177 0.84078 22.9505 0.840373 22.9833 0.840027V0.842835C50.335 1.33533 53.7889 44.1018 24.9006 43.1846C53.8626 36.9514 44.2026 3.17007 22.8849 3.06636Z" fill="white"/>
<path d="M19.6935 21.1492C20.9024 21.3909 27.8171 21.9712 34.2967 19.0215C33.926 20.44 32.8751 23.683 31.6372 25.3077C34.1194 26.436 38.3682 30.501 35.5056 37.735C36.102 36.6389 37.2174 33.7215 36.9079 30.8202C36.823 30.0244 36.6916 29.3031 36.5544 28.5506C36.0666 25.8738 35.5067 22.8016 36.7143 14.5742C34.6424 17.4458 30.4283 20.859 19.6935 21.1492Z" fill="white"/>
<path d="M39.8476 36.0814C37.0056 40.4022 28.6122 42.6914 24.9642 43.1992C38.6004 43.3926 42.6139 34.6887 43.7744 31.5939C42.934 31.3631 41.5017 31.1587 41.5017 31.1587C41.405 31.6422 40.8247 32.8028 40.3895 33.4314C41.0198 33.9161 40.306 35.7698 39.8476 36.0814Z" fill="white"/>
<defs>
<filter id="filter0_d_25_684" x="16.705" y="20.5301" width="24.9323" height="24.9323" filterUnits="userSpaceOnUse" color-interpolation-filters="sRGB">
<feFlood flood-opacity="0" result="BackgroundImageFix"/>
<feColorMatrix in="SourceAlpha" type="matrix" values="0 0 0 0 0 0 0 0 0 0 0 0 0 0 0 0 0 0 127 0" result="hardAlpha"/>
<feOffset/>
<feGaussianBlur stdDeviation="5"/>
<feComposite in2="hardAlpha" operator="out"/>
<feColorMatrix type="matrix" values="0 0 0 0 0.75775 0 0 0 0 1 0 0 0 0 0.3625 0 0 0 1 0"/>
<feBlend mode="normal" in2="BackgroundImageFix" result="effect1_dropShadow_25_684"/>
<feBlend mode="normal" in="SourceGraphic" in2="effect1_dropShadow_25_684" result="shape"/>
</filter>
</defs>
</svg>
