<svg width="33" height="32" viewBox="0 0 33 32" fill="none" xmlns="http://www.w3.org/2000/svg">
<path d="M24.2 27V5C24.2 3.89543 23.3046 3 22.2 3L10.2 3C9.09541 3 8.19998 3.89543 8.19998 5L8.19998 27C8.19998 28.1046 9.09541 29 10.2 29H22.2C23.3046 29 24.2 28.1046 24.2 27Z" stroke="#34CEFF" stroke-width="2" stroke-linecap="round" stroke-linejoin="round"/>
<path d="M16.2 9C17.0284 9 17.7 8.32843 17.7 7.5C17.7 6.67157 17.0284 6 16.2 6C15.3716 6 14.7 6.67157 14.7 7.5C14.7 8.32843 15.3716 9 16.2 9Z" fill="#34CEFF"/>
</svg>
