<svg width="32" height="33" viewBox="0 0 32 33" fill="none" xmlns="http://www.w3.org/2000/svg">
<path d="M10.9999 17.3625L22.2374 27.25C22.3673 27.365 22.5248 27.4442 22.6945 27.4799C22.8643 27.5156 23.0404 27.5065 23.2055 27.4535C23.3707 27.4006 23.5193 27.3056 23.6366 27.1779C23.754 27.0501 23.8361 26.8941 23.8749 26.725L28.5749 6.20004C28.6143 6.02327 28.605 5.83913 28.5479 5.66726C28.4908 5.49538 28.3881 5.34224 28.2508 5.22417C28.1135 5.1061 27.9467 5.02753 27.7682 4.99686C27.5897 4.9662 27.4062 4.98457 27.2374 5.05004L4.16239 14.1125C3.23739 14.475 3.36239 15.825 4.33739 16.025L10.9999 17.3625Z" stroke="white" stroke-width="2" stroke-linecap="round" stroke-linejoin="round"/>
<path d="M11 17.3625L28.0125 5.07495" stroke="white" stroke-width="2" stroke-linecap="round" stroke-linejoin="round"/>
<path d="M16.6125 22.3L12.7125 26.2001C12.5734 26.3413 12.3954 26.4381 12.2011 26.4779C12.0069 26.5178 11.8052 26.4991 11.6216 26.424C11.4381 26.349 11.281 26.2211 11.1703 26.0566C11.0596 25.8921 11.0003 25.6983 11 25.5V17.3625" stroke="white" stroke-width="2" stroke-linecap="round" stroke-linejoin="round"/>
</svg>
