<svg width="33" height="32" viewBox="0 0 33 32" fill="none" xmlns="http://www.w3.org/2000/svg">
<path d="M16.0885 3.70994L12.4999 7.29851C12.1094 7.68903 12.1094 8.3222 12.4999 8.71272L16.0858 12.2986C16.4764 12.6892 17.1095 12.6892 17.5 12.2986L21.0886 8.71007C21.4791 8.31955 21.4791 7.68638 21.0886 7.29586L17.5027 3.70994C17.1122 3.31942 16.479 3.31942 16.0885 3.70994Z" stroke="#34CEFF" stroke-width="2" stroke-linecap="round" stroke-linejoin="round"/>
<path d="M24.0897 11.7099L20.5011 15.2985C20.1106 15.689 20.1106 16.3222 20.5011 16.7127L24.087 20.2986C24.4776 20.6892 25.1107 20.6892 25.5013 20.2986L29.0898 16.7101C29.4803 16.3195 29.4803 15.6864 29.0898 15.2959L25.5039 11.7099C25.1134 11.3194 24.4802 11.3194 24.0897 11.7099Z" stroke="#34CEFF" stroke-width="2" stroke-linecap="round" stroke-linejoin="round"/>
<path d="M8.08848 11.6987L4.49992 15.2873C4.10939 15.6778 4.10939 16.311 4.49992 16.7015L8.08583 20.2874C8.47636 20.6779 9.10952 20.6779 9.50004 20.2874L13.0886 16.6988C13.4791 16.3083 13.4791 15.6752 13.0886 15.2846L9.5027 11.6987C9.11217 11.3082 8.47901 11.3082 8.08848 11.6987Z" stroke="#34CEFF" stroke-width="2" stroke-linecap="round" stroke-linejoin="round"/>
<path d="M16.0897 19.6987L12.5011 23.2873C12.1106 23.6778 12.1106 24.311 12.5011 24.7015L16.087 28.2874C16.4776 28.6779 17.1107 28.6779 17.5013 28.2874L21.0898 24.6988C21.4803 24.3083 21.4803 23.6752 21.0898 23.2846L17.5039 19.6987C17.1134 19.3082 16.4802 19.3082 16.0897 19.6987Z" stroke="#34CEFF" stroke-width="2" stroke-linecap="round" stroke-linejoin="round"/>
</svg>
